<svg id="Layer_1" data-name="Layer 1" xmlns="http://www.w3.org/2000/svg" viewBox="0 0 411.76 223.91"><defs><style>.cls-1{fill:#2c3e50;}</style></defs><path class="cls-1" d="M60.66,368h82.56a10.54,10.54,0,0,0,9.68-6.38l86.86-202.85a10.53,10.53,0,0,0-9.68-14.67H147.52a10.54,10.54,0,0,0-9.68,6.38L51,353.28A10.52,10.52,0,0,0,60.66,368Z" transform="translate(-50.12 -144.05)"/><path class="cls-1" d="M186,368H268.6a10.54,10.54,0,0,0,9.68-6.38l86.86-202.85a10.52,10.52,0,0,0-9.68-14.67H272.9a10.54,10.54,0,0,0-9.68,6.38L176.36,353.28A10.53,10.53,0,0,0,186,368Z" transform="translate(-50.12 -144.05)"/><path class="cls-1" d="M371.05,188.38l-41.28,96.4a10.56,10.56,0,0,0,0,8.29l29.33,68.5a10.54,10.54,0,0,0,9.68,6.38h82.56A10.52,10.52,0,0,0,461,353.28l-70.61-164.9A10.53,10.53,0,0,0,371.05,188.38Z" transform="translate(-50.12 -144.05)"/></svg>