<svg id="Layer_1" data-name="Layer 1" xmlns="http://www.w3.org/2000/svg" xmlns:xlink="http://www.w3.org/1999/xlink" viewBox="0 0 475.37 475.37"><defs><style>.cls-1{fill:url(#linear-gradient);}.cls-2{fill:#ecf0f1;}</style><linearGradient id="linear-gradient" x1="-260.79" y1="256" x2="487.89" y2="256" gradientTransform="translate(237.68 -124.35) rotate(45)" gradientUnits="userSpaceOnUse"><stop offset="0.04" stop-color="#09c6f9"/><stop offset="0.18" stop-color="#08b4f6"/><stop offset="0.69" stop-color="#0575ed"/><stop offset="0.93" stop-color="#045de9"/></linearGradient></defs><circle class="cls-1" cx="237.68" cy="237.68" r="237.68"/><path class="cls-2" d="M113.54,337.65h60.21a7.68,7.68,0,0,0,7.06-4.66l63.35-147.94a7.68,7.68,0,0,0-7.06-10.7H176.89a7.67,7.67,0,0,0-7.06,4.66L106.48,327A7.68,7.68,0,0,0,113.54,337.65Z" transform="translate(-18.32 -18.32)"/><path class="cls-2" d="M205,337.65h60.21a7.68,7.68,0,0,0,7.06-4.66L335.6,185.05a7.68,7.68,0,0,0-7.06-10.7H268.33a7.67,7.67,0,0,0-7.06,4.66L197.92,327A7.68,7.68,0,0,0,205,337.65Z" transform="translate(-18.32 -18.32)"/><path class="cls-2" d="M339.91,206.68,309.8,277a7.64,7.64,0,0,0,0,6l21.39,50a7.68,7.68,0,0,0,7.06,4.66h60.21a7.68,7.68,0,0,0,7.06-10.7L354,206.68A7.68,7.68,0,0,0,339.91,206.68Z" transform="translate(-18.32 -18.32)"/></svg>